<svg width="20" height="19" viewBox="0 0 20 19" fill="none" xmlns="http://www.w3.org/2000/svg">
<path d="M9.34731 19C8.91194 19.0002 8.49368 18.8276 8.18147 18.5191L0.482484 10.6898C-0.160828 10.0348 -0.160828 8.97371 0.482484 8.3187L8.18147 0.489483C8.59995 0.0659204 9.20885 -0.0984337 9.7788 0.0583312C10.3488 0.215096 10.7932 0.669164 10.9447 1.24949C11.0961 1.82982 10.9316 2.44824 10.5132 2.8718L3.99102 9.51546L10.5132 16.1367C10.9844 16.6165 11.1252 17.3376 10.8701 17.9641C10.615 18.5907 10.0141 18.9994 9.34731 19Z" fill="#282828"/>
<path d="M18.3333 11H1.66667C0.746192 11 0 10.3284 0 9.5C0 8.67157 0.746192 8 1.66667 8H18.3333C19.2538 8 20 8.67157 20 9.5C20 10.3284 19.2538 11 18.3333 11Z" fill="#282828"/>
</svg>
