<svg width="25" height="25" viewBox="0 0 25 25" fill="none" xmlns="http://www.w3.org/2000/svg">
<path d="M17.7168 4.83858H19.3785C19.8104 4.83858 20.1605 4.51362 20.1605 4.11278V0.725802C20.1605 0.324958 19.8104 0 19.3785 0H17.7168C17.2849 0 16.9348 0.324958 16.9348 0.725802V4.11278C16.9348 4.51362 17.2849 4.83858 17.7168 4.83858Z" fill="#939393"/>
<path d="M4.81423 4.83858H6.47594C6.90783 4.83858 7.25795 4.51362 7.25795 4.11278V0.725802C7.25795 0.324958 6.90783 0 6.47594 0H4.81423C4.38235 0 4.03223 0.324958 4.03223 0.725802V4.11278C4.03223 4.51362 4.38235 4.83858 4.81423 4.83858Z" fill="#939393"/>
<path d="M25.0001 3.70307C25.0001 2.99264 24.4887 2.41914 23.8637 2.41914H21.3979V3.98554C21.3979 4.93136 20.7199 5.69745 19.8828 5.69745H18.273C17.4397 5.69745 16.7579 4.93136 16.7579 3.98554V2.41914H8.23915V3.98554C8.23915 4.93136 7.55736 5.69745 6.72404 5.69745H5.11423C4.27713 5.69745 3.59912 4.93136 3.59912 3.98554V2.41914H1.13707C0.508305 2.41914 0.000732422 2.99264 0.000732422 3.70307V8.06415H25.0001V3.70307Z" fill="#939393"/>
<path d="M1.13651 24.9995H23.8628C24.4879 24.9995 24.9993 24.4818 24.9993 23.849V8.06447H0V23.849C0 24.4818 0.511418 24.9995 1.13651 24.9995ZM18.0098 10.1737C18.0098 9.74801 18.347 9.40669 18.7675 9.40669H20.8663C21.283 9.40669 21.6239 9.74801 21.6239 10.1737V12.2982C21.6239 12.7201 21.283 13.0652 20.8663 13.0652H18.7675C18.347 13.0652 18.0098 12.7201 18.0098 12.2982V10.1737ZM18.0098 15.0594C18.0098 14.6375 18.347 14.2924 18.7675 14.2924H20.8663C21.283 14.2924 21.6239 14.6375 21.6239 15.0594V17.1878C21.6239 17.6096 21.283 17.9548 20.8663 17.9548H18.7675C18.347 17.9548 18.0098 17.6096 18.0098 17.1878V15.0594ZM13.1304 10.1737C13.1304 9.74801 13.4714 9.40669 13.8881 9.40669H15.9869C16.4074 9.40669 16.7445 9.74801 16.7445 10.1737V12.2982C16.7445 12.7201 16.4074 13.0652 15.9869 13.0652H13.8881C13.4714 13.0652 13.1304 12.7201 13.1304 12.2982V10.1737ZM13.1304 15.0594C13.1304 14.6375 13.4714 14.2924 13.8881 14.2924H15.9869C16.4074 14.2924 16.7445 14.6375 16.7445 15.0594V17.1878C16.7445 17.6096 16.4074 17.9548 15.9869 17.9548H13.8881C13.4714 17.9548 13.1304 17.6096 13.1304 17.1878V15.0594ZM8.25481 10.1737C8.25481 9.74801 8.59198 9.40669 9.01248 9.40669H11.1112C11.528 9.40669 11.8689 9.74801 11.8689 10.1737V12.2982C11.8689 12.7201 11.528 13.0652 11.1112 13.0652H9.01248C8.59198 13.0652 8.25481 12.7201 8.25481 12.2982V10.1737ZM8.25481 15.0594C8.25481 14.6375 8.59198 14.2924 9.01248 14.2924H11.1112C11.528 14.2924 11.8689 14.6375 11.8689 15.0594V17.1878C11.8689 17.6096 11.528 17.9548 11.1112 17.9548H9.01248C8.59198 17.9548 8.25481 17.6096 8.25481 17.1878V15.0594ZM8.25481 19.9489C8.25481 19.5271 8.59198 19.1819 9.01248 19.1819H11.1112C11.528 19.1819 11.8689 19.5271 11.8689 19.9489V22.0735C11.8689 22.4991 11.528 22.8404 11.1112 22.8404H9.01248C8.59198 22.8404 8.25481 22.4991 8.25481 22.0735V19.9489ZM3.42466 10.1238C3.42466 9.70199 3.76562 9.35684 4.18233 9.35684H6.2811C6.69781 9.35684 7.03877 9.70199 7.03877 10.1238V12.2484C7.03877 12.6702 6.69781 13.0154 6.2811 13.0154H4.18233C3.76562 13.0154 3.42466 12.6702 3.42466 12.2484V10.1238ZM3.37541 15.0594C3.37541 14.6375 3.71637 14.2924 4.13308 14.2924H6.23185C6.65235 14.2924 6.98952 14.6375 6.98952 15.0594V17.1878C6.98952 17.6096 6.65235 17.9548 6.23185 17.9548H4.13308C3.71637 17.9548 3.37541 17.6096 3.37541 17.1878V15.0594ZM3.37541 19.9489C3.37541 19.5271 3.71637 19.1819 4.13308 19.1819H6.23185C6.65235 19.1819 6.98952 19.5271 6.98952 19.9489V22.0735C6.98952 22.4991 6.65235 22.8404 6.23185 22.8404H4.13308C3.71637 22.8404 3.37541 22.4991 3.37541 22.0735V19.9489Z" fill="#939393"/>
</svg>
