<svg width="29" height="27" viewBox="0 0 29 27" fill="none" xmlns="http://www.w3.org/2000/svg">
<path d="M0 4.58767C0 3.90638 0.133305 3.23266 0.422132 2.6195C0.488785 2.48324 0.555437 2.35455 0.636901 2.22586C1.2664 1.27206 2.21434 0.863281 3.32522 0.863281C8.72407 0.863281 14.1155 0.863281 19.5144 0.863281C20.1513 0.863281 20.4623 1.19636 20.4623 1.84737C20.4623 5.36737 20.4623 8.89494 20.4623 12.4149C20.4623 14.368 19.0626 15.7911 17.1593 15.7911C13.8785 15.7911 10.5977 15.7911 7.31696 15.7911C6.75412 15.7911 6.25052 15.9501 5.79136 16.2907C4.36203 17.3429 2.9253 18.3876 1.48857 19.4322C1.02941 19.7653 0.659119 19.8107 0.348074 19.5458C0.118493 19.3565 0 19.0613 0 18.7585C0 14.0349 0 9.31128 0 4.58767ZM10.7681 7.19171C12.3455 7.19171 13.923 7.19171 15.5078 7.19171C16.041 7.19171 16.4039 6.85864 16.4113 6.37417C16.4261 5.88212 16.0558 5.5112 15.5152 5.5112C12.3603 5.50363 9.19804 5.50363 6.04316 5.51877C5.85801 5.51877 5.65805 5.5869 5.50253 5.67773C5.19889 5.86698 5.0878 6.25305 5.19149 6.59369C5.30998 6.97219 5.5914 7.19171 6.00613 7.19171C7.59838 7.19928 9.18323 7.19171 10.7681 7.19171ZM10.7755 11.1659C12.3529 11.1659 13.9304 11.1659 15.5152 11.1659C16.0484 11.1659 16.4113 10.8328 16.4187 10.3484C16.4261 9.85632 16.0632 9.48539 15.5226 9.48539C12.3677 9.47782 9.20544 9.47782 6.05056 9.49296C5.86542 9.49296 5.66546 9.56109 5.50994 9.6595C5.2063 9.84875 5.09521 10.2348 5.2063 10.5755C5.32479 10.954 5.60621 11.1659 6.02094 11.1659C7.59838 11.1659 9.18323 11.1659 10.7755 11.1659Z" fill="#939393"/>
<path d="M7.88696 17.4944C8.07951 17.4944 8.1906 17.4944 8.30169 17.4944C11.2418 17.4944 14.1819 17.4944 17.1146 17.4944C18.3736 17.4944 19.4993 17.1083 20.4473 16.2529C21.5359 15.2689 22.0988 14.0198 22.121 12.5361C22.1432 10.9616 22.1284 9.37947 22.1284 7.80493C22.1284 7.70652 22.1284 7.60055 22.1284 7.46429C22.3209 7.46429 22.4913 7.46429 22.669 7.46429C23.5355 7.46429 24.4094 7.45672 25.2759 7.47186C26.9866 7.49457 28.3937 8.95556 28.3937 10.7193C28.3937 15.6171 28.3937 20.5224 28.4011 25.4201C28.4011 25.7607 28.2234 26.0787 27.9197 26.2301C27.6013 26.3815 27.305 26.3209 27.0162 26.109C25.5647 25.0492 24.1131 23.997 22.669 22.9296C22.158 22.5511 21.61 22.3846 20.9879 22.3846C17.7367 22.3921 14.4856 22.3921 11.227 22.3846C9.64955 22.3846 8.34612 21.3929 8.04249 19.8638C7.87956 19.1068 7.9314 18.312 7.88696 17.4944Z" fill="#939393"/>
</svg>
