<svg width="20" height="20" viewBox="0 0 20 20" fill="none" xmlns="http://www.w3.org/2000/svg">
<path d="M15.8872 0H12.479C12.1113 0 11.7586 0.146869 11.4986 0.408296C11.2385 0.669724 11.0924 1.0243 11.0924 1.39401C11.0924 1.76373 11.2385 2.1183 11.4986 2.37973C11.7586 2.64115 12.1113 2.78802 12.479 2.78802H14.6781L8.7251 8.77205C8.46498 9.03356 8.31885 9.38824 8.31885 9.75808C8.31885 10.1279 8.46498 10.4826 8.7251 10.7441C8.98521 11.0056 9.33801 11.1525 9.70587 11.1525C10.0737 11.1525 10.4265 11.0056 10.6866 10.7441L16.6388 4.75915V6.97005C16.6388 7.33977 16.7848 7.69434 17.0449 7.95577C17.3049 8.2172 17.6576 8.36407 18.0253 8.36407C18.3931 8.36407 18.7458 8.2172 19.0058 7.95577C19.2658 7.69434 19.4119 7.33977 19.4119 6.97005V3.54358C19.4109 2.60406 19.0393 1.70331 18.3785 1.03898C17.7177 0.37464 16.8217 0.000984041 15.8872 0Z" fill="white"/>
<path d="M15.2524 9.29372C14.8846 9.29372 14.5319 9.44059 14.2719 9.70201C14.0119 9.96344 13.8658 10.318 13.8658 10.6877V15.3484C13.8655 15.7143 13.7208 16.0652 13.4635 16.324C13.2061 16.5827 12.8571 16.7282 12.4931 16.7284H4.14587C3.78188 16.7282 3.43286 16.5827 3.17548 16.324C2.9181 16.0652 2.7734 15.7143 2.77316 15.3484V6.95642C2.7734 6.59048 2.9181 6.2396 3.17548 5.98084C3.43286 5.72208 3.78188 5.5766 4.14587 5.57635H8.78166C9.1494 5.57635 9.50209 5.42948 9.76212 5.16806C10.0222 4.90663 10.1682 4.55206 10.1682 4.18234C10.1682 3.81263 10.0222 3.45805 9.76212 3.19663C9.50209 2.9352 9.1494 2.78833 8.78166 2.78833H4.14587C3.04669 2.78956 1.99288 3.22909 1.21565 4.0105C0.438412 4.7919 0.00122335 5.85135 0 6.95642V15.3484C0.00122335 16.4534 0.438412 17.5129 1.21565 18.2943C1.99288 19.0757 3.04669 19.5152 4.14587 19.5165H12.4931C13.5922 19.5152 14.6461 19.0757 15.4233 18.2943C16.2005 17.5129 16.6377 16.4534 16.6389 15.3484V10.6877C16.6389 10.318 16.4928 9.96344 16.2328 9.70201C15.9728 9.44059 15.6201 9.29372 15.2524 9.29372Z" fill="white"/>
</svg>
