<svg width="21" height="21" viewBox="0 0 21 21" fill="none" xmlns="http://www.w3.org/2000/svg">
<g clip-path="url(#clip0_65_4153)">
<path d="M6.85824 19.4323L6.85823 19.4323C6.82785 19.8172 6.68798 20.1235 6.45476 20.3334C6.22178 20.543 5.90082 20.6518 5.51679 20.6519M6.85824 19.4323L1.50279 19.3002H1.45279C1.45279 19.3002 1.45279 19.3003 1.45279 19.3004C1.45285 19.7107 1.58484 20.0473 1.82531 20.2826C2.06563 20.5178 2.40929 20.6468 2.82365 20.6519L2.82371 20.6519C3.7214 20.6618 4.6191 20.6618 5.51679 20.6519M6.85824 19.4323L6.8583 19.4312M6.85824 19.4323L6.8583 19.4312M5.51679 20.6519C5.5167 20.6519 5.5166 20.6519 5.5165 20.6519V20.6019L5.51705 20.6519C5.51696 20.6519 5.51688 20.6519 5.51679 20.6519ZM6.8583 19.4312C6.86794 19.2626 6.90593 19.1895 6.95896 19.1526C6.9868 19.1333 7.02328 19.1206 7.07249 19.1131C7.12188 19.1055 7.18079 19.1036 7.25188 19.1036C7.82377 19.1102 8.40035 19.108 8.97795 19.1058C9.26713 19.1047 9.55656 19.1036 9.84579 19.1036C10.0437 19.1036 10.2409 19.103 10.4376 19.1024C11.026 19.1005 11.6109 19.0987 12.2015 19.1135L12.2021 19.1135C13.0017 19.1235 13.7306 18.8934 14.408 18.485L14.4081 18.4849L14.4089 18.4845C16.1344 17.4393 17.86 16.3941 19.5857 15.339C19.9585 15.1122 20.2043 14.8175 20.3098 14.4932C20.4155 14.1684 20.3787 13.8187 20.195 13.4871C20.0111 13.155 19.7333 12.9457 19.4017 12.8709C19.071 12.7962 18.6917 12.8563 18.3043 13.0525L18.3039 13.0527C17.3474 13.5458 16.3905 14.039 15.4435 14.5421L15.4431 14.5423C15.3831 14.5748 15.3347 14.601 15.2925 14.618C15.2501 14.6351 15.2204 14.6402 15.1971 14.6367C15.176 14.6335 15.1534 14.622 15.1273 14.5896C15.1002 14.556 15.0716 14.5025 15.0403 14.4205L15.0402 14.4203C14.8484 13.9255 14.416 13.5244 13.8495 13.6398L13.8494 13.6399M6.8583 19.4312L13.8494 13.6399M13.8494 13.6399C12.6237 13.8928 11.5815 13.5438 10.5419 12.926C9.49001 12.2949 8.36835 12.3264 7.26254 12.7946L13.8494 13.6399ZM11.7097 16.8051C12.8043 16.7953 13.8003 16.4896 14.7569 15.9274C15.674 15.3855 16.6254 14.9023 17.5766 14.4192C17.9755 14.2166 18.3743 14.0141 18.7706 13.8072L11.7097 16.8051ZM11.7097 16.8051C11.7029 16.8051 11.696 16.8051 11.6892 16.8052M11.7097 16.8051L11.6892 16.8052M5.44747 19.7439C4.57964 19.7341 3.72167 19.7341 2.85384 19.7439C2.45937 19.7538 2.33117 19.5763 2.34103 19.2114L5.44747 19.7439ZM5.44747 19.7439C5.8518 19.7538 5.99973 19.5664 5.99973 19.1818L5.44747 19.7439ZM11.6892 16.8052C11.4093 16.8054 11.1175 16.8056 11.0982 16.4205L11.6892 16.8052ZM1.78049 13.1667C1.56234 13.4016 1.44296 13.7274 1.44293 14.1029L5.63535 12.7809C5.63526 12.7809 5.63518 12.7809 5.63509 12.7809C5.47392 12.7792 5.31242 12.7773 5.15069 12.7754C4.33357 12.7658 3.51062 12.7562 2.69463 12.7809C2.31289 12.7911 1.9989 12.9315 1.78049 13.1667ZM12.0548 18.1851L12.0542 18.1851L7.21101 18.2048C7.05914 18.2097 6.9832 18.1885 6.9415 18.1459C6.89897 18.1024 6.87811 18.0231 6.87811 17.8702H6.82811L6.8781 17.871C6.89784 16.6969 6.89784 15.513 6.8781 14.3389L6.87811 14.3389L6.87808 14.3379C6.87342 14.2121 6.89678 14.1221 6.94387 14.0503C6.99149 13.9778 7.06693 13.9186 7.17667 13.8614L7.17692 13.8612C8.19123 13.3248 9.20831 13.2199 10.2454 13.8015L10.2455 13.8015C10.3157 13.8407 10.3859 13.8805 10.4564 13.9204C10.9862 14.2205 11.5302 14.5286 12.1754 14.6258C12.5779 14.6877 12.9702 14.6479 13.3569 14.6087C13.4703 14.5972 13.5832 14.5858 13.6958 14.5769L13.6958 14.5769C13.8195 14.567 13.9273 14.566 14.0117 14.5984C14.0905 14.6287 14.1543 14.6906 14.1855 14.8243C14.2135 14.9456 14.2101 15.0504 14.1732 15.1405C14.1364 15.2303 14.0641 15.3113 13.9432 15.3811C13.2339 15.7794 12.4548 15.8776 11.6573 15.9268L11.6571 15.9269C11.5062 15.9366 11.3488 15.9513 11.2323 16.0185C11.1722 16.0531 11.1224 16.1018 11.0897 16.1701C11.0572 16.2377 11.0431 16.3211 11.0483 16.4231C11.0535 16.528 11.078 16.6106 11.1201 16.6745C11.1625 16.7389 11.2202 16.7805 11.2852 16.807C11.4039 16.8555 11.5526 16.8553 11.6858 16.8552C11.6938 16.8552 11.7018 16.8551 11.7097 16.8551L11.7101 16.8551C12.8145 16.8452 13.819 16.5366 14.7823 15.9706L14.7824 15.9705C15.698 15.4294 16.6471 14.9474 17.5977 14.4646C17.9969 14.2619 18.3964 14.059 18.7938 13.8515L18.7944 13.8511C18.9086 13.7893 19.0239 13.7548 19.1233 13.7645C19.2185 13.7738 19.3051 13.8242 19.3669 13.9479C19.4249 14.0639 19.4235 14.1641 19.3845 14.2516C19.3445 14.3413 19.2623 14.4233 19.1487 14.4944C18.5405 14.8626 17.9335 15.2319 17.3265 15.6011C16.1125 16.3396 14.8988 17.0779 13.6761 17.8075L13.676 17.8076C13.1939 18.0969 12.6322 18.1851 12.0548 18.1851ZM2.39102 19.2127L2.39103 19.212L5.36858 13.6395L5.36971 13.6895C5.36974 13.6895 5.36976 13.6895 5.36978 13.6895C5.58189 13.6847 5.72352 13.7239 5.81285 13.8068C5.90159 13.8892 5.94973 14.0252 5.94973 14.2411H5.99973L5.94973 14.2408C5.93987 15.8879 5.93986 17.5349 5.94973 19.182C5.94971 19.3696 5.91325 19.4968 5.83869 19.5767C5.76508 19.6555 5.64412 19.6987 5.44869 19.6939L5.44804 19.6939C4.57983 19.6841 3.72148 19.6841 2.85327 19.6939L2.85259 19.6939C2.66146 19.6987 2.54876 19.6576 2.48293 19.5847C2.41599 19.5105 2.38619 19.3914 2.39102 19.2127Z" fill="#8A8A8A" stroke="#8A8A8A" stroke-width="0.1"/>
<path d="M16.1359 6.51922V6.51945C16.1359 8.61168 14.4231 10.3056 12.3201 10.3056C10.2077 10.3056 8.48475 8.58252 8.49449 6.47037C8.50422 4.37807 10.2171 2.6938 12.3201 2.6938C14.4621 2.6938 16.1457 4.37748 16.1359 6.51922ZM7.5661 6.50987C7.57612 9.14088 9.68917 11.2439 12.3201 11.2439C14.9608 11.2439 17.1138 9.09157 17.0939 6.47962C17.074 3.85868 14.9414 1.73583 12.33 1.73583C9.68914 1.73583 7.54622 3.8883 7.5661 6.50987Z" fill="#8A8A8A" stroke="#8A8A8A" stroke-width="0.1"/>
<path d="M12.8828 9.31011H12.9328V9.29039H13.3463C13.3931 9.29039 13.4428 9.27883 13.4825 9.25241C13.5236 9.22501 13.554 9.1809 13.554 9.12207C13.554 9.07352 13.5241 9.02254 13.4815 8.97952L11.8839 7.14434C12.2201 7.12255 12.5058 7.05337 12.7389 6.92784L12.7389 6.92784L12.7397 6.92744C12.9937 6.78516 13.1884 6.59107 13.3117 6.35477C13.4037 6.17852 13.4608 5.98545 13.4836 5.78017H13.928C13.989 5.78017 14.0515 5.75627 14.0916 5.71623C14.1306 5.67716 14.1555 5.62496 14.1555 5.55269V5.36535C14.1555 5.29308 14.1306 5.24087 14.0916 5.20181L14.0919 5.20145L14.0862 5.19717C14.0424 5.16429 13.9925 5.13786 13.928 5.13786H13.4474C13.4169 5.00756 13.3718 4.88539 13.3117 4.77033C13.2767 4.70324 13.233 4.64212 13.181 4.58709H13.928C13.989 4.58709 14.0515 4.56319 14.0916 4.52315L14.0919 4.52351L14.0962 4.51779C14.1291 4.47396 14.1555 4.42407 14.1555 4.35961V4.16241C14.1555 4.10146 14.1316 4.03891 14.0916 3.99887L14.0919 3.99851L14.0862 3.99423C14.0424 3.96135 13.9925 3.93492 13.928 3.93492H10.9305C10.8583 3.93492 10.8061 3.95981 10.767 3.99887L10.7666 3.99851L10.7624 4.00423C10.7295 4.04805 10.7031 4.09795 10.7031 4.16241V4.35961C10.7031 4.39054 10.7092 4.42065 10.7219 4.44606C10.7332 4.46877 10.7515 4.49066 10.7779 4.5023C10.8204 4.53325 10.8688 4.55751 10.9305 4.55751H11.4827C11.8038 4.55751 12.0417 4.60627 12.2097 4.69028C12.3784 4.77463 12.4875 4.88498 12.5511 5.03042C12.5665 5.06562 12.5799 5.10139 12.5913 5.13786H10.9305C10.8583 5.13786 10.8061 5.16275 10.767 5.20181C10.7279 5.24087 10.7031 5.29308 10.7031 5.36535V5.55269C10.7031 5.62496 10.7279 5.67716 10.767 5.71623C10.8061 5.75529 10.8583 5.78017 10.9305 5.78017H12.6253C12.6101 5.86937 12.5858 5.95119 12.5516 6.02455L12.5516 6.02455L12.5511 6.02566C12.4881 6.16963 12.3704 6.28032 12.191 6.36534C12.013 6.44964 11.7551 6.49857 11.4038 6.49857H10.9996C10.9273 6.49857 10.8751 6.52345 10.836 6.56251L10.8357 6.56215L10.8314 6.56787C10.7985 6.6117 10.7721 6.66159 10.7721 6.72605V6.89367C10.7721 6.96622 10.7823 7.03107 10.7944 7.06725C10.808 7.10806 10.8441 7.15388 10.8841 7.19405L12.6086 9.16485L12.6085 9.16493L12.6108 9.16728L12.6116 9.16799C12.6402 9.19666 12.6712 9.22765 12.7122 9.25871C12.7569 9.30112 12.823 9.31011 12.8828 9.31011Z" fill="#8A8A8A" stroke="#8A8A8A" stroke-width="0.1"/>
</g>
<defs>
<clipPath id="clip0_65_4153">
<rect width="20" height="20" fill="white" transform="translate(0.897949 0.609375)"/>
</clipPath>
</defs>
</svg>
