<svg width="28" height="27" viewBox="0 0 28 27" fill="none" xmlns="http://www.w3.org/2000/svg">
<path d="M2.53896 20.3944C2.53896 18.9032 2.54641 17.4216 2.53261 15.9357C2.52537 15.8174 2.54707 15.6991 2.59572 15.5911C2.64437 15.4831 2.71857 15.3886 2.81186 15.3158C6.28731 12.2845 9.75778 9.24775 13.2233 6.20574C13.4165 6.03638 13.5269 6.02893 13.7286 6.20574C17.2217 9.25912 20.7212 12.3044 24.2271 15.3414C24.3147 15.4092 24.3844 15.4974 24.4303 15.5984C24.4762 15.6994 24.4968 15.81 24.4904 15.9208C24.4819 18.8936 24.4903 21.8664 24.4839 24.8392C24.4839 25.8936 23.9946 26.4028 22.9904 26.4028C20.9735 26.4028 18.9566 26.3942 16.9397 26.4124C16.6 26.4124 16.5438 26.2995 16.5459 25.9778C16.5576 23.6548 16.5458 21.3317 16.5596 19.0076C16.5596 18.6881 16.5003 18.5965 16.1807 18.5997C14.4115 18.6188 12.6405 18.6188 10.8678 18.5997C10.5207 18.5997 10.475 18.7232 10.4761 19.0385C10.4877 21.3477 10.4761 23.6558 10.491 25.9618C10.491 26.325 10.406 26.4124 10.0663 26.4092C8.04943 26.3911 6.03244 26.4017 4.01554 26.3996C3.03575 26.3996 2.55601 25.8937 2.55283 24.852C2.53584 23.3672 2.53896 21.8813 2.53896 20.3944Z" fill="#939393"/>
<path d="M18.8464 5.04371C18.8464 3.90935 18.8464 2.84424 18.8464 1.77804C18.8464 1.13151 19.0035 0.961082 19.6022 0.960017C20.5476 0.960017 21.4931 0.960017 22.4386 0.960017C23.0245 0.960017 23.1977 1.15068 23.1977 1.78656C23.1977 4.04783 23.2051 6.31016 23.1913 8.57144C23.1836 8.70366 23.2077 8.8358 23.2617 8.95669C23.3156 9.07757 23.3978 9.18362 23.5013 9.26588C24.5501 10.2053 25.5871 11.1597 26.6231 12.1151C27.1369 12.588 27.1454 12.8053 26.7006 13.3592C26.4374 13.6873 26.1752 14.0175 25.9098 14.3434C25.5743 14.7577 25.3791 14.7812 24.9905 14.4265C22.75 12.4034 20.5106 10.3797 18.2721 8.35521C16.7425 6.97054 15.2085 5.59117 13.6863 4.20118C13.5154 4.0446 13.4263 4.06377 13.2691 4.20118C9.59555 7.54924 5.9191 10.8941 2.23984 14.2358C2.15598 14.3114 2.07431 14.3902 1.98832 14.4637C1.6083 14.7833 1.45745 14.7704 1.1305 14.3763C0.837513 14.0238 0.552024 13.6638 0.265411 13.3048C-0.113555 12.8298 -0.091324 12.5592 0.361949 12.1428C1.59898 11.0173 2.83744 9.89288 4.0773 8.76952C6.74882 6.34103 9.42038 3.91289 12.0919 1.48511C12.2731 1.28897 12.4928 1.13248 12.7371 1.02548C12.9814 0.918481 13.2452 0.863281 13.5117 0.863281C13.7783 0.863281 14.0419 0.918481 14.2862 1.02548C14.5305 1.13248 14.7503 1.28897 14.9315 1.48511C16.147 2.57793 17.3528 3.68457 18.5619 4.78699L18.8464 5.04371Z" fill="#939393"/>
</svg>
