<svg width="12" height="15" viewBox="0 0 12 15" fill="none" xmlns="http://www.w3.org/2000/svg">
<path d="M0.516727 6.02791L0.516735 6.02874C0.52501 6.91189 0.772673 7.92167 1.24377 8.87C2.26399 10.9411 3.88987 12.5036 5.81696 13.7941L5.81744 13.7944C5.91795 13.8611 6.02447 13.8977 6.13777 13.8942C6.24954 13.8907 6.35156 13.8486 6.44504 13.7872L6.44586 13.7866C8.18766 12.6261 9.67775 11.2262 10.7134 9.42748L10.7136 9.42723C11.4488 8.14455 11.8459 6.77113 11.6974 5.28406L11.6974 5.28393C11.4361 2.69058 9.15886 0.645009 6.42232 0.512031C3.21398 0.351693 0.504322 2.79107 0.516727 6.02791ZM6.16044 12.8751L6.16041 12.8751L6.15706 12.8776C6.14154 12.889 6.13137 12.8955 6.12413 12.8993C6.12354 12.8996 6.123 12.8998 6.1225 12.9001C6.11924 12.8985 6.11419 12.8956 6.10723 12.8908C4.33841 11.6483 2.85072 10.1918 1.98965 8.25453C1.48088 7.10584 1.2812 5.92551 1.61135 4.71311C2.16205 2.70071 4.13268 1.32906 6.36075 1.41425C8.51391 1.50316 10.3524 3.05388 10.7131 5.07742C10.7443 5.25246 10.7611 5.42275 10.7786 5.5995C10.7873 5.68768 10.7961 5.77747 10.807 5.87026C10.7695 7.28985 10.2532 8.55086 9.42003 9.72336L9.41976 9.72374C8.5436 10.9649 7.43181 11.9904 6.16044 12.8751Z" fill="#8A8A8A" stroke="#8A8A8A" stroke-width="0.3"/>
<path d="M8.40601 5.50563V5.50561C8.41469 4.28695 7.40001 3.31842 6.13408 3.31436C4.87804 3.31031 3.84943 4.26122 3.84912 5.46968C3.84074 6.67673 4.86333 7.64847 6.1085 7.65658C7.35706 7.6647 8.39732 6.70591 8.40601 5.50563ZM6.1329 6.75025C5.38446 6.75372 4.79182 6.18424 4.78826 5.49233C4.7847 4.79678 5.36569 4.22797 6.11821 4.22451C6.87122 4.22104 7.4593 4.78341 7.46286 5.47861C7.46642 6.17415 6.8774 6.74679 6.1329 6.75025Z" fill="#8A8A8A" stroke="#8A8A8A" stroke-width="0.3"/>
</svg>
