<svg width="12" height="13" viewBox="0 0 12 13" fill="none" xmlns="http://www.w3.org/2000/svg">
<path d="M12 13C11.5891 13 11.225 13 10.8465 13C10.8032 11.4108 10.1832 10.1079 8.91439 9.13794C8.04206 8.47219 7.04356 8.15364 5.94773 8.17153C4.62481 8.18943 3.49294 8.67979 2.56654 9.61399C1.64374 10.5446 1.17873 11.6792 1.1535 13C0.775008 13 0.40733 13 0 13C0.144187 10.4623 1.35176 8.66189 3.66957 7.57379C2.37188 6.61812 1.65455 5.36536 1.79153 3.7332C1.88165 2.6451 2.39351 1.74312 3.22259 1.03442C4.9961 -0.483205 7.60589 -0.297081 9.11265 1.4353C10.5978 3.14262 10.5473 5.93089 8.16461 7.57737C10.4896 8.64758 11.8017 10.4193 12 13ZM8.9252 4.12693C8.93241 2.49835 7.57705 1.15253 5.9225 1.14537C4.26795 1.13822 2.91259 2.4554 2.89817 4.08755C2.88375 5.73045 4.25353 7.10848 5.90087 7.11922C7.54821 7.1228 8.91799 5.76624 8.9252 4.12693Z" fill="#8A8A8A"/>
</svg>
