<svg width="26" height="26" viewBox="0 0 26 26" fill="none" xmlns="http://www.w3.org/2000/svg">
<path d="M7.37891 17.9424H12.8403" stroke="#939393" stroke-width="2" stroke-miterlimit="10" stroke-linecap="round" stroke-linejoin="round"/>
<path d="M10.573 15.6747L12.8401 17.9418L10.5724 20.2096" stroke="#939393" stroke-width="2" stroke-miterlimit="10" stroke-linecap="round" stroke-linejoin="round"/>
<path d="M24.5329 3.31606L2.70997 3.31366C2.29389 3.31366 1.95657 2.97634 1.95657 2.55995C1.95657 2.14417 2.29389 1.80685 2.70997 1.80685L21.6846 1.80384C22.1828 1.80384 22.5865 1.40008 22.5865 0.901921C22.5865 0.40376 22.1828 0 21.6846 0H2.10448C0.944312 0 0 0.944312 0 2.10448V21.0824C0 21.6831 0.487038 22.1707 1.08832 22.1707H3.40145C4.81205 24.3874 7.28873 25.8623 10.1048 25.8623C12.9209 25.8623 15.3976 24.3877 16.8082 22.171H24.5329C25.1341 22.171 25.6212 21.6834 25.6212 21.0827V4.40468C25.6212 3.8034 25.1341 3.31606 24.5329 3.31606ZM10.1048 24.3591C6.55486 24.3591 3.66691 21.4714 3.66691 17.9218C3.66691 17.6545 3.68375 17.3851 3.71652 17.1209C4.11457 13.9073 6.86122 11.4839 10.1048 11.4839C10.9358 11.4839 11.7436 11.6396 12.5066 11.9462C14.9584 12.9324 16.5427 15.2779 16.5427 17.9218C16.5427 21.4711 13.6548 24.3591 10.1048 24.3591ZM23.9565 10.67H18.0613C16.9468 10.67 16.0434 9.76691 16.0434 8.65243C16.0434 7.53766 16.9468 6.63423 18.0613 6.63423H23.9565V10.67V10.67ZM17.3957 8.65243C17.3957 9.12985 17.7826 9.51738 18.2606 9.51738C18.7386 9.51738 19.1255 9.12985 19.1255 8.65243C19.1255 8.17441 18.7386 7.78749 18.2606 7.78749C17.7826 7.78749 17.3957 8.17441 17.3957 8.65243Z" fill="#939393"/>
</svg>
